HIERARCHY
ROOT Hips
{
    OFFSET   0.000000   0.000000   0.000000
    CHANNELS 6 Xposition Yposition Zposition Zrotation Xrotation Yrotation
    JOINT Chest
    {
        OFFSET   0.000000   8.007240   0.000000
        CHANNELS 3 Zrotation Xrotation Yrotation
        JOINT Chest2
        {
            OFFSET   0.000000  22.077100   0.000000
            CHANNELS 3 Zrotation Xrotation Yrotation
            JOINT Neck
            {
                OFFSET   0.000000  23.254800   0.000000
                CHANNELS 3 Zrotation Xrotation Yrotation
                JOINT Head
                {
                    OFFSET   0.000000  14.370000   1.956600
                    CHANNELS 3 Zrotation Xrotation Yrotation
                    End Site
                    {
                        OFFSET   0.000000  19.566000   0.000000
                    }
                }
            }
            JOINT LeftCollar
            {
                OFFSET   3.911900  19.017000  -0.467064
                CHANNELS 3 Zrotation Xrotation Yrotation
                JOINT LeftShoulder
                {
                    OFFSET  10.383700   0.000000   0.000000
                    CHANNELS 3 Zrotation Xrotation Yrotation
                    JOINT LeftElbow
                    {
                        OFFSET  26.662100   0.001476   0.000517
                        CHANNELS 3 Zrotation Xrotation Yrotation
                        JOINT LeftWrist
                        {
                            OFFSET  28.869000  -0.000025  -0.000106
                            CHANNELS 3 Zrotation Xrotation Yrotation
                            JOINT LeftFinger0
                            {
                                OFFSET   2.044660  -2.323460   3.252850
                                CHANNELS 3 Zrotation Xrotation Yrotation
                                JOINT LeftFinger01
                                {
                                    OFFSET   3.088130   0.000000   0.000000
                                    CHANNELS 3 Zrotation Xrotation Yrotation
                                    JOINT LeftFinger02
                                    {
                                        OFFSET   2.639460   0.000000   0.000000
                                        CHANNELS 3 Zrotation Xrotation Yrotation
                                        End Site
                                        {
                                            OFFSET   2.582190   0.000000   0.000000
                                        }
                                    }
                                }
                            }
                            JOINT LeftFinger1
                            {
                                OFFSET   8.364480   0.000000   3.252850
                                CHANNELS 3 Zrotation Xrotation Yrotation
                                JOINT LeftFinger11
                                {
                                    OFFSET   4.646930   0.000000   0.000000
                                    CHANNELS 3 Zrotation Xrotation Yrotation
                                    JOINT LeftFinger12
                                    {
                                        OFFSET   2.323460   0.000000   0.000000
                                        CHANNELS 3 Zrotation Xrotation Yrotation
                                        End Site
                                        {
                                            OFFSET   2.273050   0.000000   0.000000
                                        }
                                    }
                                }
                            }
                            JOINT LeftFinger2
                            {
                                OFFSET   8.364490   0.000015   1.078090
                                CHANNELS 3 Zrotation Xrotation Yrotation
                                JOINT LeftFinger21
                                {
                                    OFFSET   5.111620   0.000000   0.000000
                                    CHANNELS 3 Zrotation Xrotation Yrotation
                                    JOINT LeftFinger22
                                    {
                                        OFFSET   2.788160   0.000016   0.000000
                                        CHANNELS 3 Zrotation Xrotation Yrotation
                                        End Site
                                        {
                                            OFFSET   2.727660   0.000000   0.000000
                                        }
                                    }
                                }
                            }
                            JOINT LeftFinger3
                            {
                                OFFSET   7.899780   0.000017  -1.078090
                                CHANNELS 3 Zrotation Xrotation Yrotation
                                JOINT LeftFinger31
                                {
                                    OFFSET   4.646930   0.000000   0.000000
                                    CHANNELS 3 Zrotation Xrotation Yrotation
                                    JOINT LeftFinger32
                                    {
                                        OFFSET   2.323470   0.000000   0.000000
                                        CHANNELS 3 Zrotation Xrotation Yrotation
                                        End Site
                                        {
                                            OFFSET   2.273050   0.000000   0.000000
                                        }
                                    }
                                }
                            }
                            JOINT LeftFinger4
                            {
                                OFFSET   7.435090   0.000000  -3.252850
                                CHANNELS 3 Zrotation Xrotation Yrotation
                                JOINT LeftFinger41
                                {
                                    OFFSET   3.717550   0.000000   0.000000
                                    CHANNELS 3 Zrotation Xrotation Yrotation
                                    JOINT LeftFinger42
                                    {
                                        OFFSET   1.858770   0.000000   0.000000
                                        CHANNELS 3 Zrotation Xrotation Yrotation
                                        End Site
                                        {
                                            OFFSET   1.818440   0.000000   0.000000
                                        }
                                    }
                                }
                            }
                        }
                    }
                }
            }
            JOINT RightCollar
            {
                OFFSET  -3.911900  19.017000  -0.467063
                CHANNELS 3 Zrotation Xrotation Yrotation
                JOINT RightShoulder
                {
                    OFFSET -10.383700   0.000019   0.000000
                    CHANNELS 3 Zrotation Xrotation Yrotation
                    JOINT RightElbow
                    {
                        OFFSET -26.662100   0.001175   0.000102
                        CHANNELS 3 Zrotation Xrotation Yrotation
                        JOINT RightWrist
                        {
                            OFFSET -28.869000   0.000016  -0.000079
                            CHANNELS 3 Zrotation Xrotation Yrotation
                            JOINT RightFinger0
                            {
                                OFFSET  -2.044660  -2.323490   3.252850
                                CHANNELS 3 Zrotation Xrotation Yrotation
                                JOINT RightFinger01
                                {
                                    OFFSET  -3.088140   0.000000   0.000000
                                    CHANNELS 3 Zrotation Xrotation Yrotation
                                    JOINT RightFinger02
                                    {
                                        OFFSET  -2.639460   0.000000   0.000000
                                        CHANNELS 3 Zrotation Xrotation Yrotation
                                        End Site
                                        {
                                            OFFSET  -2.582190   0.000000   0.000000
                                        }
                                    }
                                }
                            }
                            JOINT RightFinger1
                            {
                                OFFSET  -8.364480   0.000000   3.252850
                                CHANNELS 3 Zrotation Xrotation Yrotation
                                JOINT RightFinger11
                                {
                                    OFFSET  -4.646930   0.000000   0.000000
                                    CHANNELS 3 Zrotation Xrotation Yrotation
                                    JOINT RightFinger12
                                    {
                                        OFFSET  -2.323470   0.000000   0.000000
                                        CHANNELS 3 Zrotation Xrotation Yrotation
                                        End Site
                                        {
                                            OFFSET  -2.273050   0.000000   0.000000
                                        }
                                    }
                                }
                            }
                            JOINT RightFinger2
                            {
                                OFFSET  -8.364480   0.000000   1.078090
                                CHANNELS 3 Zrotation Xrotation Yrotation
                                JOINT RightFinger21
                                {
                                    OFFSET  -5.111620   0.000000   0.000000
                                    CHANNELS 3 Zrotation Xrotation Yrotation
                                    JOINT RightFinger22
                                    {
                                        OFFSET  -2.788160   0.000000   0.000000
                                        CHANNELS 3 Zrotation Xrotation Yrotation
                                        End Site
                                        {
                                            OFFSET  -2.727660   0.000000   0.000000
                                        }
                                    }
                                }
                            }
                            JOINT RightFinger3
                            {
                                OFFSET  -7.899780   0.000000  -1.078090
                                CHANNELS 3 Zrotation Xrotation Yrotation
                                JOINT RightFinger31
                                {
                                    OFFSET  -4.646930   0.000000   0.000000
                                    CHANNELS 3 Zrotation Xrotation Yrotation
                                    JOINT RightFinger32
                                    {
                                        OFFSET  -2.323470   0.000000   0.000000
                                        CHANNELS 3 Zrotation Xrotation Yrotation
                                        End Site
                                        {
                                            OFFSET  -2.273050   0.000000   0.000000
                                        }
                                    }
                                }
                            }
                            JOINT RightFinger4
                            {
                                OFFSET  -7.435090   0.000000  -3.252850
                                CHANNELS 3 Zrotation Xrotation Yrotation
                                JOINT RightFinger41
                                {
                                    OFFSET  -3.717550   0.000000   0.000000
                                    CHANNELS 3 Zrotation Xrotation Yrotation
                                    JOINT RightFinger42
                                    {
                                        OFFSET  -1.858770   0.000000   0.000000
                                        CHANNELS 3 Zrotation Xrotation Yrotation
                                        End Site
                                        {
                                            OFFSET  -1.818440   0.000000   0.000000
                                        }
                                    }
                                }
                            }
                        }
                    }
                }
            }
        }
    }
    JOINT LeftHip
    {
        OFFSET   9.783040   0.000000   0.000000
        CHANNELS 3 Zrotation Xrotation Yrotation
        JOINT LeftKnee
        {
            OFFSET   0.000032 -41.789100  -0.002222
            CHANNELS 3 Zrotation Xrotation Yrotation
            JOINT LeftAnkle
            {
                OFFSET   0.000087 -41.133200  -0.000135
                CHANNELS 3 Zrotation Xrotation Yrotation
                JOINT LeftToe
                {
                    OFFSET   0.000000  -6.358960  14.674500
                    CHANNELS 3 Zrotation Xrotation Yrotation
                    End Site
                    {
                        OFFSET   0.000000   0.000000   3.913200
                    }
                }
            }
        }
    }
    JOINT RightHip
    {
        OFFSET  -9.783040   0.000000   0.000000
        CHANNELS 3 Zrotation Xrotation Yrotation
        JOINT RightKnee
        {
            OFFSET   0.000047 -41.789100  -0.000896
            CHANNELS 3 Zrotation Xrotation Yrotation
            JOINT RightAnkle
            {
                OFFSET  -0.000117 -41.133300  -0.000248
                CHANNELS 3 Zrotation Xrotation Yrotation
                JOINT RightToe
                {
                    OFFSET   0.000000  -6.358970  14.674500
                    CHANNELS 3 Zrotation Xrotation Yrotation
                    End Site
                    {
                        OFFSET   0.000000   0.000000   3.913200
                    }
                }
            }
        }
    }
}
MOTION
Frames: 4
Frame Time:   0.016667
  0.546837  89.520200   1.655240  -1.687880  -5.320380   5.074810   2.058900   4.286520  -0.610160   4.181150   8.547950  -1.380650  -2.078610  -1.865340  -0.064927  -3.424940  -3.767550   1.859950  -6.895710   1.607310  -4.004500 -48.254600  26.766400 -68.911500  -7.585500  -3.749980 -117.958000  -7.390950   9.147490  22.738600  40.425100  14.600700 -48.134500  -9.685100   0.008037   0.002833   0.157431   0.000377   0.000266 -39.684900  -3.418170   4.092690 -32.573700   0.014518  -0.005790 -22.893000   0.011812  -0.000155 -61.178500  -4.675080   2.562810 -61.288400   0.016097  -0.001276 -45.966300  -0.000308   0.013086 -69.154000  -5.371580   2.039820 -69.252300   0.002857   0.000000 -51.939200   0.001188  -0.000428 -77.932300  -9.764900   2.078150 -110.000000  -0.000192   0.001883 -78.031700  -0.017576   0.001901   8.380920  -1.056010  10.938000  70.580100  18.897400   0.725218  -1.086860   1.183810  13.253500 -16.600900 -15.882300  -0.669915 -39.972900  40.820400  78.056000  33.929100   0.038298  -0.025700  11.968200   0.036164  -0.013550  30.453400   4.993810   8.418600  25.217200  -0.030460  -0.001588  17.652000  -0.018072  -0.001622  28.056900   3.108660   5.815510  33.536700  -0.035836  -0.013724  22.335500  -0.025068   0.002176  28.220600   1.823920   3.398270  34.044300  -0.041638  -0.019258  22.673500  -0.029322  -0.008541  34.186400   0.432331   0.622363  51.283200  -0.002391  -0.003950  34.154600  -0.046982   0.005155   3.124720   8.056850   4.169810   0.531679   0.637443  10.988100  -4.393950  -2.690480   0.764841  -0.000000   0.000000  -0.000000   0.766974   4.203920  -9.271510   2.062410   3.993050  -7.376300  -5.226080  -2.302110  -2.844800  -0.000000   0.000000   0.000000
  0.540905  89.519200   1.664380  -1.686360  -5.312640   5.089950   2.059860   4.280010  -0.602988   4.182430   8.535200  -1.366080  -2.091510  -1.839610  -0.065233  -3.446090  -3.715690   1.960720  -6.895480   1.609070  -4.023870 -48.093800  26.791800 -69.051100  -7.994240  -3.829430 -117.570000  -8.666420   6.507690  22.398100  40.558700  15.914900 -49.490500  -8.559790   0.008158   0.002148   0.720105   0.000420   0.000236 -37.431700  -3.588070   4.671350 -30.746200   0.001673  -0.004435 -21.507000   0.001764  -0.001408 -59.808400  -5.075320   2.968260 -59.938200   0.011643  -0.003200 -44.953600  -0.000650   0.009128 -68.114400  -5.478040   2.198450 -68.221000   0.002790  -0.001046 -51.165700   0.001188  -0.001365 -76.855800  -9.725840   2.260460 -110.000000  -0.000185   0.001873 -76.964100  -0.014898   0.001862   8.390670  -1.049880  10.940700  70.573000  18.917600   0.719100  -1.080660   1.162280  13.238000 -16.585400 -15.876500  -0.662454 -39.970900  40.817100  78.048000  33.928400   0.057182  -0.038107  11.966500   0.052652  -0.020492  30.449000   4.994300   8.421680  25.213800  -0.028922  -0.001508  17.649700  -0.017390  -0.001762  28.056900   3.110340   5.816400  33.530100  -0.045274  -0.016189  22.331100  -0.031525   0.001668  28.220300   1.827160   3.401730  34.040300  -0.050025  -0.022358  22.670900  -0.035140  -0.009859  34.182100   0.432343   0.624721  51.276700  -0.002393  -0.003949  34.150300  -0.058459   0.005992   3.125080   8.061700   4.170030   0.530968   0.622735  10.982700  -4.395810  -2.687430   0.756079  -0.000000   0.000000   0.000000   0.771129   4.185500  -9.271920   2.060810   4.009730  -7.386870  -5.228140  -2.310350  -2.850860   0.000000   0.000000   0.000000
  0.534937  89.518100   1.672910  -1.684410  -5.305640   5.104980   2.061070   4.273230  -0.598398   4.184390   8.521820  -1.356690  -2.103840  -1.820090  -0.065525  -3.466230  -3.676140   2.042140  -6.895650   1.613220  -4.040950 -47.946500  26.828200 -69.184900  -8.375110  -3.845090 -117.173000  -9.433810   4.239130  21.954400  41.724800  18.244900 -50.958300  -7.430120   0.008224   0.001149   1.284950   0.000459   0.000195 -36.132800  -3.673530   5.012930 -29.692800  -0.009977  -0.002910 -20.760200  -0.006586  -0.002994 -58.673100  -5.297840   3.220000 -58.819300   0.004344  -0.004300 -44.114400  -0.000975   0.002800 -67.137700  -5.584750   2.350650 -67.252700   0.002706  -0.001901 -50.439500   0.001188  -0.002052 -75.777600  -9.689100   2.443410 -110.000000  -0.000175   0.001862 -75.908700  -0.010048   0.001822   8.399160  -1.042520  10.944200  70.566200  18.938500   0.717524  -1.073460   1.136250  13.219900 -16.572500 -15.870600  -0.657182 -39.973100  40.811900  78.032400  33.923800   0.067886  -0.045531  11.961900   0.061324  -0.024648  30.438500   4.995900   8.430080  25.205700  -0.026362  -0.001430  17.644000  -0.016602  -0.001901  28.056300   3.115370   5.822530  33.513800  -0.050075  -0.016541  22.320200  -0.034690   0.001176  28.219700   1.833610   3.411720  34.027700  -0.053703  -0.022801  22.662500  -0.037569  -0.010047  34.172100   0.432377   0.629277  51.261800  -0.002396  -0.003949  34.140400  -0.063153   0.006829   3.124900   8.066530   4.170630   0.530256   0.608027  10.977100  -4.397340  -2.684370   0.748058   0.000000   0.000000   0.000000   0.774906   4.169570  -9.271820   2.058960   4.023850  -7.398970  -5.229910  -2.318890  -2.857630   0.000000   0.000000   0.000000
  0.528382  89.517100   1.681320  -1.681420  -5.300310   5.118760   2.061790   4.267320  -0.596298   4.185540   8.510070  -1.352260  -2.113470  -1.815100  -0.065786  -3.481820  -3.665620   2.118950  -6.896130   1.619280  -4.051620 -47.767700  26.879400 -69.337200  -8.624230  -3.795200 -116.817000  -9.617660   2.042350  21.497400  42.265700  19.939600 -52.433300  -6.437910   0.005986   0.000644   1.781060   0.000491   0.000169 -36.239700  -3.666770   4.987400 -29.779100  -0.016205  -0.001246 -20.821900  -0.011178  -0.004575 -58.386100  -5.275070   3.210780 -58.534600  -0.002583  -0.004212 -43.901000  -0.001269  -0.002721 -66.774900  -5.638750   2.411730 -66.893500   0.002591  -0.002679 -50.170000   0.001201  -0.002465 -75.199700  -9.671600   2.541870 -110.000000  -0.000169   0.001846 -75.339300  -0.004057   0.001786   8.405180  -1.031840  10.949700  70.560400  18.957600   0.725157  -1.066210   1.101870  13.206400 -16.573500 -15.871100  -0.657332 -39.992500  40.805400  78.011300  33.905400   0.036777  -0.022528  11.952900   0.036100  -0.016000  30.418400   5.001460   8.447200  25.190100  -0.025224  -0.001363  17.633100  -0.016186  -0.002041  28.054300   3.126180   5.843650  33.481900  -0.032346  -0.008995  22.299000  -0.022304   0.000688  28.218400   1.844520   3.432520  33.997100  -0.034121  -0.013621  22.642100  -0.023773  -0.005163  34.154200   0.432755   0.635713  51.234900  -0.002399  -0.003948  34.122500  -0.040531   0.005162   3.125350   8.062320   4.172290   0.529704   0.614411  10.971500  -4.400780  -2.689740   0.740884   0.000000   0.000000  -0.000000   0.778037   4.165720  -9.271770   2.057670   4.026540  -7.405540  -5.231090  -2.325550  -2.868670  -0.000000   0.000000   0.000000
